<svg width="556" height="172" viewBox="0 0 556 172" fill="none" xmlns="http://www.w3.org/2000/svg">
<g style="mix-blend-mode:luminosity">
<path d="M555.878 152.422C555.87 163.049 547.249 171.656 536.623 171.648L-7.84804e-05 171.226L0.119222 19.4511C0.127574 8.82476 8.74868 0.217188 19.375 0.225541L555.998 0.647344L555.878 152.422Z" fill="#4E4E4E"/>
</g>
<path d="M0 19.4523C0 8.82602 8.61434 0.211666 19.2407 0.211666H551.566V147.723C551.566 158.35 542.952 166.964 532.325 166.964H0V19.4523Z" fill="#80B3FF"/>
<path opacity="0.3" d="M285.143 20.5003H311.732C317.656 20.5003 322.461 25.3049 322.461 31.2292V57.8181C322.448 61.0461 322.057 64.1559 321.285 67.1476H329.533C335.933 67.1476 341.12 72.3347 341.12 78.7348V109.13C341.12 117.036 338.889 124.782 334.681 131.476C330.474 138.17 324.461 143.539 317.337 146.966C310.212 150.394 302.264 151.74 294.408 150.849C286.552 149.959 279.107 146.868 272.931 141.933L265.122 149.751C264.246 150.625 263.059 151.116 261.821 151.115C260.583 151.114 259.396 150.622 258.521 149.746C257.647 148.87 257.156 147.683 257.157 146.445C257.158 145.207 257.65 144.02 258.526 143.145L266.335 135.337C263.031 131.207 260.536 126.491 258.983 121.436C253.394 123.187 247.47 123.598 241.692 122.635C235.914 121.673 230.444 119.364 225.724 115.895C221.005 112.426 217.168 107.894 214.524 102.667C211.88 97.44 210.504 91.664 210.507 85.8065V59.1989C210.512 56.3566 211.645 53.6325 213.656 51.6245C215.668 49.6164 218.394 48.4886 221.236 48.4886H247.825L249.001 48.5073C251.066 40.4918 255.737 33.3903 262.28 28.3202C268.823 23.2502 276.866 20.4992 285.143 20.5003ZM302.44 112.433L279.583 135.29C284.437 138.92 290.205 141.127 296.242 141.664C302.279 142.201 308.346 141.048 313.765 138.333C319.184 135.618 323.74 131.448 326.923 126.29C330.107 121.133 331.792 115.191 331.79 109.13V78.7254C331.792 78.429 331.734 78.1353 331.621 77.8614C331.508 77.5874 331.341 77.3386 331.131 77.1295C330.921 76.9203 330.672 76.755 330.397 76.643C330.123 76.531 329.829 76.4746 329.533 76.477H299.137C293.077 76.477 287.137 78.1635 281.98 81.3476C276.824 84.5317 272.656 89.088 269.942 94.5064C267.228 99.9247 266.075 105.992 266.613 112.028C267.151 118.064 269.358 123.831 272.987 128.685L295.844 105.827C296.72 104.953 297.907 104.462 299.145 104.463C300.383 104.464 301.57 104.956 302.444 105.832C303.319 106.708 303.81 107.896 303.809 109.133C303.808 110.371 303.316 111.558 302.44 112.433ZM311.536 67.1476C312.562 64.2274 313.131 61.0834 313.131 57.8181V31.2292C313.131 30.858 312.984 30.5021 312.721 30.2396C312.459 29.9772 312.103 29.8297 311.732 29.8297H285.143C279.088 29.8291 273.197 31.792 268.352 35.4237C263.508 39.0554 259.971 44.1602 258.274 49.972C263.506 51.5032 268.341 54.1594 272.439 57.7548C276.537 61.3501 279.8 65.7976 281.999 70.7861C287.392 68.3814 293.232 67.1416 299.137 67.1476H311.536ZM273.892 75.5814C271.836 70.3434 268.249 65.8466 263.599 62.6779C258.949 59.5091 253.452 57.8155 247.825 57.8181H221.236C220.865 57.8181 220.509 57.9655 220.247 58.228C219.984 58.4904 219.837 58.8464 219.837 59.2175V85.8065C219.836 90.2948 220.914 94.7176 222.98 98.7018C225.047 102.686 228.042 106.115 231.711 108.699C235.381 111.283 239.619 112.946 244.066 113.549C248.514 114.152 253.041 113.676 257.267 112.162C257.032 108.866 257.179 105.554 257.705 102.292L239.858 84.4444C239.424 84.0107 239.08 83.4958 238.845 82.9291C238.611 82.3625 238.49 81.7551 238.49 81.1418C238.49 80.5284 238.611 79.921 238.845 79.3544C239.08 78.7877 239.424 78.2728 239.858 77.8391C240.292 77.4054 240.806 77.0614 241.373 76.8267C241.94 76.5919 242.547 76.4711 243.16 76.4711C243.774 76.4711 244.381 76.5919 244.948 76.8267C245.514 77.0614 246.029 77.4054 246.463 77.8391L260.737 92.1225C263.64 85.5773 268.168 79.8832 273.892 75.5814Z" fill="white" fill-opacity="0.8"/>
<path d="M76.5712 60.2941H98.009V67.661H84.6748V82.0266H95.1359V89.3935H84.6748V111.863H76.5712V60.2941ZM101.895 60.2941H123.996V67.661H109.999V81.2899H121.123V88.6568H109.999V104.496H123.996V111.863H101.895V60.2941ZM128.658 60.2941H138.824L146.707 91.1615H146.854V60.2941H154.074V111.863H145.749L136.025 74.2176H135.877V111.863H128.658V60.2941ZM171.81 112.599C167.832 112.599 164.787 111.47 162.675 109.211C160.563 106.951 159.507 103.759 159.507 99.6335V72.5232C159.507 68.3977 160.563 65.2054 162.675 62.9462C164.787 60.687 167.832 59.5574 171.81 59.5574C175.788 59.5574 178.833 60.687 180.945 62.9462C183.057 65.2054 184.113 68.3977 184.113 72.5232V99.6335C184.113 103.759 183.057 106.951 180.945 109.211C178.833 111.47 175.788 112.599 171.81 112.599ZM171.81 105.232C174.61 105.232 176.009 103.538 176.009 100.149V72.0075C176.009 68.6187 174.61 66.9243 171.81 66.9243C169.011 66.9243 167.611 68.6187 167.611 72.0075V100.149C167.611 103.538 169.011 105.232 171.81 105.232ZM189.593 60.2941H201.159L206.316 97.2024H206.463L211.62 60.2941H223.186V111.863H215.525V72.8179H215.377L209.484 111.863H202.706L196.813 72.8179H196.665V111.863H189.593V60.2941ZM229.234 60.2941H251.334V67.661H237.337V81.2899H248.461V88.6568H237.337V104.496H251.334V111.863H229.234V60.2941ZM255.996 60.2941H266.163L274.045 91.1615H274.193V60.2941H281.412V111.863H273.088L263.363 74.2176H263.216V111.863H255.996V60.2941ZM293.697 60.2941H304.674L313.072 111.863H304.969L303.495 101.623V101.77H294.286L292.813 111.863H285.299L293.697 60.2941ZM302.537 94.7713L298.928 69.2818H298.78L295.244 94.7713H302.537ZM335.064 60.2941H346.041L354.439 111.863H346.336L344.862 101.623V101.77H335.654L334.18 111.863H326.666L335.064 60.2941ZM343.904 94.7713L340.295 69.2818H340.147L336.611 94.7713H343.904ZM358.371 60.2941H366.474V104.496H379.808V111.863H358.371V60.2941ZM390.244 60.2941H401.221L409.619 111.863H401.516L400.042 101.623V101.77H390.834L389.36 111.863H381.846L390.244 60.2941ZM399.085 94.7713L395.475 69.2818H395.327L391.791 94.7713H399.085ZM413.551 60.2941H425.117L430.274 97.2024H430.421L435.578 60.2941H447.144V111.863H439.482V72.8179H439.335L433.441 111.863H426.664L420.77 72.8179H420.623V111.863H413.551V60.2941Z" fill="white"/>
<g filter="url(#filter0_i_2_126)">
<path d="M29.5024 19.8789C29.5024 21.183 28.9843 22.4336 28.0622 23.3558C27.1401 24.2779 25.8894 24.7959 24.5853 24.7959H19.6682V29.713H29.5024V34.6301H14.7512V24.7959C14.7512 23.4918 15.2692 22.2412 16.1914 21.319C17.1135 20.3969 18.3642 19.8789 19.6682 19.8789H24.5853V14.9618H14.7512V10.0447H24.5853C25.8894 10.0447 27.1401 10.5628 28.0622 11.4849C28.9843 12.4071 29.5024 13.6577 29.5024 14.9618M39.3365 0.210629H4.91706C3.61297 0.210629 2.3623 0.728674 1.44017 1.6508C0.518046 2.57293 0 3.8236 0 5.12769V39.5471C0 40.8512 2.15902e-05 43.024 2.84287e-05 44.4642C1.22932 44.4642 3.61297 44.4642 4.91706 44.4642H39.3365C40.6406 44.4642 41.8912 43.9461 42.8134 43.024C43.7355 42.1019 44.2535 40.8512 44.2535 39.5471V5.12769C44.2535 3.8236 44.2535 1.64455 44.2535 0.210403C41.795 0.210403 40.6406 0.210629 39.3365 0.210629Z" fill="#176B87"/>
</g>
<defs>
<filter id="filter0_i_2_126" x="0" y="0.210403" width="44.2534" height="57.1513" filterUnits="userSpaceOnUse" color-interpolation-filters="sRGB">
<feFlood flood-opacity="0" result="BackgroundImageFix"/>
<feBlend mode="normal" in="SourceGraphic" in2="BackgroundImageFix" result="shape"/>
<feColorMatrix in="SourceAlpha" type="matrix" values="0 0 0 0 0 0 0 0 0 0 0 0 0 0 0 0 0 0 127 0" result="hardAlpha"/>
<feOffset dy="12.8975"/>
<feGaussianBlur stdDeviation="6.44875"/>
<feComposite in2="hardAlpha" operator="arithmetic" k2="-1" k3="1"/>
<feColorMatrix type="matrix" values="0 0 0 0 0 0 0 0 0 0 0 0 0 0 0 0 0 0 0.25 0"/>
<feBlend mode="normal" in2="shape" result="effect1_innerShadow_2_126"/>
</filter>
</defs>
</svg>
