<svg width="556" height="172" viewBox="0 0 556 172" fill="none" xmlns="http://www.w3.org/2000/svg">
<g style="mix-blend-mode:luminosity">
<path d="M555.878 152.633C555.87 163.259 547.249 171.866 536.623 171.858L-7.84804e-05 171.436L0.119222 19.6615C0.127574 9.03513 8.74868 0.427561 19.375 0.435913L555.998 0.857717L555.878 152.633Z" fill="#4E4E4E"/>
</g>
<path d="M0 19.663C0 9.03666 8.61434 0.422302 19.2407 0.422302H551.566V147.934C551.566 158.56 542.952 167.175 532.325 167.175H0V19.663Z" fill="#80B3FF"/>
<path opacity="0.3" d="M307.814 87.1708C307.845 76.8828 303.99 66.9624 297.02 59.3948C290.051 51.8271 280.48 47.1704 270.225 46.3565C259.969 45.5425 249.784 48.6313 241.708 55.0048C233.632 61.3783 228.26 70.5664 226.668 80.7306C229.765 80.4816 232.853 80.4694 235.932 80.6941C236.812 76.4479 238.553 72.4271 241.047 68.88C243.541 65.3329 246.736 62.3347 250.435 60.0706C254.133 57.8066 258.256 56.3247 262.55 55.7164C266.843 55.1082 271.216 55.3865 275.398 56.5343C279.579 57.682 283.481 59.6747 286.863 62.3895C290.244 65.1042 293.033 68.4833 295.058 72.318C297.082 76.1528 298.299 80.3619 298.633 84.6853C298.968 89.0088 298.412 93.3549 297.001 97.4552C300.553 96.9451 303.96 96.0706 307.067 94.9957C307.565 92.4572 307.814 89.855 307.814 87.1708ZM221.822 35.84L221.184 35.3116C220.249 34.6621 219.104 34.3863 217.976 34.5388C216.848 34.6912 215.817 35.2608 215.088 36.1353C214.359 37.0097 213.983 38.1256 214.036 39.263C214.089 40.4004 214.566 41.4769 215.372 42.2802L223.188 50.096L223.826 50.6243C224.761 51.2739 225.906 51.5496 227.034 51.3972C228.162 51.2447 229.193 50.6752 229.922 49.8007C230.651 48.9263 231.027 47.8104 230.974 46.673C230.921 45.5355 230.445 44.4591 229.638 43.6557L221.822 35.84ZM318.945 41.6426C319.584 40.7069 319.852 39.5666 319.695 38.4443C319.539 37.3221 318.969 36.2984 318.099 35.5733C317.228 34.8483 316.118 34.4738 314.986 34.5231C313.854 34.5724 312.781 35.0419 311.976 35.84L304.152 43.6557L303.623 44.2934C302.984 45.2291 302.717 46.3694 302.873 47.4916C303.03 48.6139 303.599 49.6376 304.47 50.3626C305.34 51.0877 306.45 51.4622 307.582 51.4129C308.714 51.3636 309.787 50.894 310.592 50.096L318.417 42.2802L318.945 41.6426ZM271.404 18.1133C271.201 16.9933 270.586 15.9899 269.681 15.3005C268.775 14.6112 267.644 14.2859 266.51 14.3887C265.377 14.4916 264.323 15.0151 263.556 15.8562C262.789 16.6972 262.365 17.795 262.367 18.9331V29.9827L262.44 30.8025C262.643 31.9225 263.258 32.926 264.163 33.6153C265.069 34.3047 266.2 34.6299 267.333 34.5271C268.467 34.4243 269.521 33.9007 270.288 33.0597C271.055 32.2186 271.479 31.1209 271.477 29.9827V18.924L271.404 18.1133ZM209.643 104.688C219.262 99.441 228.189 98.0018 236.943 99.0949C245.816 100.215 254.797 103.968 264.362 109.552C275.321 115.938 287.901 117.104 299.287 115.528C310.656 113.952 321.241 109.598 328.528 104.396C329.511 103.693 330.175 102.629 330.373 101.436C330.571 100.244 330.288 99.0215 329.585 98.0382C328.882 97.0549 327.817 96.3912 326.624 96.193C325.432 95.9949 324.21 96.2785 323.226 96.9815C317.233 101.263 308.05 105.116 298.039 106.501C288.046 107.885 277.671 106.774 268.953 101.682C258.86 95.7973 248.667 91.3884 238.073 90.0585C227.369 88.7194 216.529 90.5504 205.279 96.69C204.754 96.9765 204.291 97.3637 203.915 97.8293C203.54 98.295 203.259 98.8301 203.091 99.404C202.922 99.9779 202.868 100.579 202.932 101.174C202.995 101.769 203.176 102.346 203.462 102.871C204.041 103.931 205.017 104.719 206.176 105.059C206.75 105.228 207.351 105.282 207.946 105.218C208.541 105.155 209.118 104.974 209.643 104.688ZM209.643 122.907C219.262 117.66 228.189 116.22 236.943 117.313C245.816 118.434 254.797 122.187 264.362 127.771C275.321 134.157 287.901 135.323 299.287 133.747C310.656 132.171 321.241 127.816 328.528 122.615C329.511 121.912 330.175 120.847 330.373 119.655C330.571 118.462 330.288 117.24 329.585 116.257C328.882 115.273 327.817 114.61 326.624 114.412C325.432 114.213 324.21 114.497 323.226 115.2C317.233 119.481 308.05 123.335 298.039 124.719C288.046 126.104 277.671 124.993 268.953 119.901C258.86 114.016 248.667 109.607 238.073 108.277C227.369 106.938 216.529 108.769 205.279 114.909C204.219 115.487 203.431 116.463 203.091 117.623C202.75 118.782 202.883 120.029 203.462 121.089C204.041 122.15 205.017 122.937 206.176 123.278C207.335 123.619 208.582 123.485 209.643 122.907ZM236.943 135.532C228.189 134.439 219.262 135.878 209.643 141.125C209.118 141.412 208.541 141.593 207.946 141.657C207.351 141.722 206.749 141.668 206.175 141.5C205.015 141.16 204.037 140.373 203.458 139.312C203.17 138.787 202.99 138.211 202.925 137.616C202.861 137.021 202.915 136.419 203.083 135.844C203.423 134.684 204.21 133.707 205.27 133.127C216.529 126.988 227.369 125.157 238.082 126.496C248.667 127.826 258.86 132.234 268.962 138.119C277.671 143.202 288.046 144.323 298.039 142.947C308.041 141.553 317.233 137.709 323.226 133.419C324.21 132.716 325.432 132.432 326.624 132.63C327.817 132.828 328.882 133.492 329.585 134.475C330.288 135.459 330.571 136.681 330.373 137.873C330.175 139.066 329.511 140.131 328.528 140.834C321.241 146.026 310.647 150.389 299.287 151.965C287.901 153.541 275.321 152.375 264.362 145.99C254.797 140.406 245.816 136.652 236.943 135.541" fill="white" fill-opacity="0.8"/>
<path d="M68.9623 60.5045H80.8968C84.924 60.5045 87.9445 61.585 89.9581 63.746C91.9717 65.9069 92.9785 69.0747 92.9785 73.2493V78.3325C92.9785 82.5071 91.9717 85.6749 89.9581 87.8358C87.9445 89.9968 84.924 91.0773 80.8968 91.0773H77.066V112.073H68.9623V60.5045ZM80.8968 83.7103C82.2228 83.7103 83.2051 83.342 83.8435 82.6053C84.5311 81.8686 84.8749 80.6162 84.8749 78.8482V72.7336C84.8749 70.9655 84.5311 69.7132 83.8435 68.9765C83.2051 68.2398 82.2228 67.8714 80.8968 67.8714H77.066V83.7103H80.8968ZM97.3797 60.5045H119.48V67.8714H105.483V81.5003H116.607V88.8672H105.483V104.706H119.48V112.073H97.3797V60.5045ZM124.142 60.5045H136.15C140.325 60.5045 143.37 61.4868 145.285 63.4513C147.201 65.3667 148.159 68.338 148.159 72.3653V75.533C148.159 80.8864 146.391 84.2751 142.854 85.6994V85.8468C144.819 86.4361 146.194 87.6394 146.98 89.4565C147.815 91.2737 148.232 93.7048 148.232 96.7498V105.811C148.232 107.285 148.281 108.488 148.38 109.421C148.478 110.305 148.723 111.189 149.116 112.073H140.865C140.571 111.238 140.374 110.452 140.276 109.716C140.178 108.979 140.129 107.653 140.129 105.737V96.3078C140.129 93.9504 139.736 92.3051 138.95 91.372C138.213 90.4388 136.912 89.9722 135.045 89.9722H132.246V112.073H124.142V60.5045ZM135.193 82.6053C136.814 82.6053 138.017 82.1878 138.803 81.3529C139.637 80.518 140.055 79.1183 140.055 77.1538V73.1756C140.055 71.3093 139.711 69.9587 139.024 69.1238C138.385 68.2889 137.354 67.8714 135.929 67.8714H132.246V82.6053H135.193ZM165.642 112.81C161.713 112.81 158.717 111.705 156.654 109.495C154.591 107.235 153.56 104.019 153.56 99.8439V60.5045H161.664V100.433C161.664 102.201 162.007 103.478 162.695 104.264C163.432 105.05 164.463 105.443 165.789 105.443C167.115 105.443 168.122 105.05 168.81 104.264C169.546 103.478 169.915 102.201 169.915 100.433V60.5045H177.724V99.8439C177.724 104.019 176.692 107.235 174.629 109.495C172.567 111.705 169.571 112.81 165.642 112.81ZM183.495 60.5045H195.724C199.899 60.5045 202.944 61.4868 204.859 63.4513C206.775 65.3667 207.732 68.338 207.732 72.3653V74.428C207.732 77.0801 207.29 79.2411 206.406 80.9109C205.571 82.5807 204.27 83.784 202.502 84.5207V84.668C206.529 86.0432 208.543 89.6284 208.543 95.4238V99.8439C208.543 103.822 207.487 106.867 205.375 108.979C203.312 111.042 200.267 112.073 196.24 112.073H183.495V60.5045ZM194.767 81.5003C196.387 81.5003 197.59 81.0828 198.376 80.2479C199.211 79.413 199.629 78.0132 199.629 76.0487V73.1756C199.629 71.3093 199.285 69.9587 198.597 69.1238C197.959 68.2889 196.927 67.8714 195.503 67.8714H191.599V81.5003H194.767ZM196.24 104.706C197.664 104.706 198.72 104.338 199.408 103.601C200.095 102.815 200.439 101.489 200.439 99.6229V95.1291C200.439 92.7717 200.022 91.1509 199.187 90.2669C198.401 89.3338 197.075 88.8672 195.209 88.8672H191.599V104.706H196.24ZM219.541 60.5045H230.518L238.916 112.073H230.813L229.339 101.833V101.98H220.131L218.657 112.073H211.143L219.541 60.5045ZM228.382 94.9817L224.772 69.4922H224.624L221.088 94.9817H228.382ZM242.848 60.5045H250.951V81.5003H259.644V60.5045H267.748V112.073H259.644V88.8672H250.951V112.073H242.848V60.5045ZM280.045 60.5045H291.022L299.42 112.073H291.316L289.843 101.833V101.98H280.634L279.161 112.073H271.647L280.045 60.5045ZM288.885 94.9817L285.276 69.4922H285.128L281.592 94.9817H288.885ZM303.352 60.5045H313.518L321.401 91.372H321.548V60.5045H328.768V112.073H320.443L310.719 74.428H310.571V112.073H303.352V60.5045ZM346.589 60.5045H354.693V112.073H346.589V60.5045ZM360.762 60.5045H368.865V82.237L379.179 60.5045H387.283L377.632 79.4375L387.43 112.073H378.958L372.107 89.0882L368.865 95.6448V112.073H360.762V60.5045ZM391.266 60.5045H399.369V104.706H412.703V112.073H391.266V60.5045ZM416.589 60.5045H424.693V112.073H416.589V60.5045ZM430.762 60.5045H442.328L447.485 97.4128H447.632L452.789 60.5045H464.355V112.073H456.694V73.0283H456.546L450.653 112.073H443.875L437.982 73.0283H437.834V112.073H430.762V60.5045Z" fill="white"/>
<g filter="url(#filter0_i_2_120)">
<path d="M29.5024 18.8607C29.5024 19.8387 29.1138 20.7767 28.4222 21.4683C27.7306 22.1599 26.7926 22.5485 25.8146 22.5485C27.8797 22.5485 29.5024 24.1957 29.5024 26.2363V29.9241C29.5024 32.653 27.3143 34.8411 24.5853 34.8411H14.7512V29.9241H24.5853V25.007H19.6682V20.0899H24.5853V15.1729H14.7512V10.2558H24.5853C27.3143 10.2558 29.5024 12.4439 29.5024 15.1729M39.3365 0.421702H4.91706C2.23726 0.421702 0 2.63438 0 5.33876V39.7582C0 41.0623 5.00189e-05 43.2351 5.26078e-05 44.6752C1.02444 44.6752 3.61297 44.6752 4.91706 44.6752H39.3365C40.6406 44.6752 41.8912 44.1572 42.8134 43.2351C43.7355 42.3129 44.2535 41.0623 44.2535 39.7582V5.33876C44.2535 4.03468 44.2535 1.4459 44.2535 0.421509C42.2048 0.421701 40.6406 0.421702 39.3365 0.421702Z" fill="#4942E4"/>
</g>
<defs>
<filter id="filter0_i_2_120" x="0" y="0.421509" width="44.2534" height="57.1512" filterUnits="userSpaceOnUse" color-interpolation-filters="sRGB">
<feFlood flood-opacity="0" result="BackgroundImageFix"/>
<feBlend mode="normal" in="SourceGraphic" in2="BackgroundImageFix" result="shape"/>
<feColorMatrix in="SourceAlpha" type="matrix" values="0 0 0 0 0 0 0 0 0 0 0 0 0 0 0 0 0 0 127 0" result="hardAlpha"/>
<feOffset dy="12.8975"/>
<feGaussianBlur stdDeviation="6.44875"/>
<feComposite in2="hardAlpha" operator="arithmetic" k2="-1" k3="1"/>
<feColorMatrix type="matrix" values="0 0 0 0 0 0 0 0 0 0 0 0 0 0 0 0 0 0 0.25 0"/>
<feBlend mode="normal" in2="shape" result="effect1_innerShadow_2_120"/>
</filter>
</defs>
</svg>
