<svg width="188" height="122" viewBox="0 0 188 122" fill="none" xmlns="http://www.w3.org/2000/svg">
<g filter="url(#filter0_d_1_20)">
<path d="M89.032 56.432C89.032 56.8427 88.808 57.3093 88.36 57.832C87.9493 58.3173 87.3893 58.56 86.68 58.56C86.008 58.56 85.4667 58.3173 85.056 57.832C84.6827 57.3093 84.4773 56.8427 84.44 56.432C84.44 56.0213 84.44 55.6107 84.44 55.2C84.44 54.7893 84.4773 53.3893 84.552 51C84.6267 48.5733 84.664 43.9067 84.664 37C84.664 30.0933 84.8693 25.4453 85.28 23.056C83.3013 22.9067 81.1173 22.4773 78.728 21.768C74.3227 20.424 72.12 18.968 72.12 17.4C72.0827 16.5413 72.456 15.9067 73.24 15.496C73.6133 15.3093 73.968 15.216 74.304 15.216C74.6773 15.216 75.0507 15.3653 75.424 15.664C75.984 15.9627 76.4693 16.2613 76.88 16.56C78.336 17.568 81.416 18.4267 86.12 19.136C87.0907 17.1573 88.6027 15.6453 90.656 14.6C92.7093 13.5173 94.8933 12.976 97.208 12.976C99.56 12.976 101.371 13.4987 102.64 14.544C103.984 15.552 104.656 16.7467 104.656 18.128C104.656 19.472 103.891 20.7227 102.36 21.88C100.829 23.0373 98.1227 23.616 94.24 23.616C92.112 23.616 90.4507 23.56 89.256 23.448C88.8827 24.568 88.696 28.32 88.696 34.704C88.696 41.088 88.752 46.2027 88.864 50.048C88.976 53.8933 89.032 56.0213 89.032 56.432ZM96.816 16.896C93.68 16.896 91.4773 17.792 90.208 19.584C91.1787 19.7707 92.2427 19.864 93.4 19.864C94.5573 19.864 96.0133 19.696 97.768 19.36C99.56 19.024 100.456 18.5947 100.456 18.072C100.456 17.288 99.2427 16.896 96.816 16.896ZM128.707 44.448C128.707 47.1733 128.893 49.4507 129.267 51.28C129.677 53.072 130.181 54.08 130.779 54.304C131.003 54.416 131.264 54.4907 131.563 54.528C131.899 54.5653 132.123 54.6213 132.235 54.696C132.384 54.7707 132.459 54.92 132.459 55.144C132.459 56.1893 132.179 57.0293 131.619 57.664C131.059 58.2613 130.237 58.56 129.155 58.56C128.109 58.56 127.288 57.888 126.691 56.544C126.093 55.1627 125.795 53.3707 125.795 51.168C124.787 53.3333 123.387 55.1067 121.595 56.488C119.803 57.8693 117.768 58.56 115.491 58.56C113.251 58.56 111.328 57.8133 109.723 56.32C106.736 53.5573 105.243 49.656 105.243 44.616C105.243 40.5467 106.419 37 108.771 33.976C111.123 30.952 114.147 29.44 117.843 29.44C120.643 29.44 123.069 30.392 125.123 32.296C125.123 30.392 125.832 29.44 127.251 29.44C128.968 29.44 129.827 30.728 129.827 33.304C129.827 35.8427 129.453 39.5573 128.707 44.448ZM125.459 44.952L125.179 36.328C122.976 34.1627 120.643 33.08 118.179 33.08C115.715 33.08 113.605 34.1813 111.851 36.384C110.096 38.5867 109.219 41.256 109.219 44.392C109.219 47.4907 109.797 50.0293 110.955 52.008C112.112 53.9493 113.717 54.92 115.771 54.92C117.824 54.92 119.709 54.0053 121.427 52.176C123.181 50.3467 124.525 47.9387 125.459 44.952ZM149.443 33.528L144.795 33.416L144.683 46.688C144.683 50.1227 144.814 52.3627 145.075 53.408C145.336 54.416 146.083 54.92 147.315 54.92C147.912 54.92 148.622 54.7333 149.443 54.36C150.264 53.9493 150.768 53.744 150.955 53.744C151.739 53.744 152.131 54.136 152.131 54.92C152.131 55.704 151.44 56.5067 150.059 57.328C148.678 58.1493 147.315 58.56 145.971 58.56C142.723 58.56 141.099 56.1707 141.099 51.392L141.043 33.416C139.811 33.528 138.952 33.584 138.467 33.584C136.6 33.584 135.667 32.968 135.667 31.736C135.667 30.504 136.6 29.888 138.467 29.888L140.931 30L140.819 23.728C140.819 21.8613 141.528 20.928 142.947 20.928C144.366 20.928 145.075 21.8613 145.075 23.728L144.907 30.056L149.443 29.832C151.31 29.832 152.243 30.4667 152.243 31.736C152.243 32.9307 151.31 33.528 149.443 33.528ZM179.566 44.448C179.566 47.1733 179.753 49.4507 180.126 51.28C180.537 53.072 181.041 54.08 181.638 54.304C181.862 54.416 182.123 54.4907 182.422 54.528C182.758 54.5653 182.982 54.6213 183.094 54.696C183.243 54.7707 183.318 54.92 183.318 55.144C183.318 56.1893 183.038 57.0293 182.478 57.664C181.918 58.2613 181.097 58.56 180.014 58.56C178.969 58.56 178.147 57.888 177.55 56.544C176.953 55.1627 176.654 53.3707 176.654 51.168C175.646 53.3333 174.246 55.1067 172.454 56.488C170.662 57.8693 168.627 58.56 166.35 58.56C164.11 58.56 162.187 57.8133 160.582 56.32C157.595 53.5573 156.102 49.656 156.102 44.616C156.102 40.5467 157.278 37 159.63 33.976C161.982 30.952 165.006 29.44 168.702 29.44C171.502 29.44 173.929 30.392 175.982 32.296C175.982 30.392 176.691 29.44 178.11 29.44C179.827 29.44 180.686 30.728 180.686 33.304C180.686 35.8427 180.313 39.5573 179.566 44.448ZM176.318 44.952L176.038 36.328C173.835 34.1627 171.502 33.08 169.038 33.08C166.574 33.08 164.465 34.1813 162.71 36.384C160.955 38.5867 160.078 41.256 160.078 44.392C160.078 47.4907 160.657 50.0293 161.814 52.008C162.971 53.9493 164.577 54.92 166.63 54.92C168.683 54.92 170.569 54.0053 172.286 52.176C174.041 50.3467 175.385 47.9387 176.318 44.952Z" fill="white"/>
<path d="M173.506 87.288C173.506 90.0133 173.692 92.2907 174.066 94.12C174.476 95.912 174.98 96.92 175.578 97.144C175.802 97.256 176.063 97.3307 176.362 97.368C176.698 97.4053 176.922 97.4613 177.034 97.536C177.183 97.6107 177.258 97.76 177.258 97.984C177.258 99.0293 176.978 99.8693 176.418 100.504C175.858 101.101 175.036 101.4 173.954 101.4C172.908 101.4 172.087 100.728 171.49 99.384C170.892 98.0027 170.594 96.2107 170.594 94.008C169.586 96.1733 168.186 97.9467 166.394 99.328C164.602 100.709 162.567 101.4 160.29 101.4C158.05 101.4 156.127 100.653 154.522 99.16C151.535 96.3973 150.042 92.496 150.042 87.456C150.042 83.3867 151.218 79.84 153.57 76.816C155.922 73.792 158.946 72.28 162.642 72.28C165.442 72.28 167.868 73.232 169.922 75.136C169.922 73.232 170.631 72.28 172.05 72.28C173.767 72.28 174.626 73.568 174.626 76.144C174.626 78.6827 174.252 82.3973 173.506 87.288ZM170.258 87.792L169.978 79.168C167.775 77.0027 165.442 75.92 162.978 75.92C160.514 75.92 158.404 77.0213 156.65 79.224C154.895 81.4267 154.018 84.096 154.018 87.232C154.018 90.3307 154.596 92.8693 155.754 94.848C156.911 96.7893 158.516 97.76 160.57 97.76C162.623 97.76 164.508 96.8453 166.226 95.016C167.98 93.1867 169.324 90.7787 170.258 87.792Z" fill="white"/>
<path d="M138.99 87.288L138.822 75.136C138.822 73.232 139.531 72.28 140.95 72.28C142.667 72.28 143.526 73.68 143.526 76.48C143.526 78.6827 143.134 82.2853 142.35 87.288C142.798 91.8427 143.022 95.24 143.022 97.48C143.022 102.371 141.808 106.291 139.382 109.24C136.992 112.227 133.651 113.72 129.358 113.72C127.118 113.72 124.952 113.235 122.862 112.264C120.771 111.331 119.726 110.379 119.726 109.408C119.726 108.475 120.155 108.008 121.014 108.008C121.387 108.008 122.414 108.344 124.094 109.016C125.774 109.725 127.528 110.08 129.358 110.08C132.456 110.08 134.92 108.96 136.75 106.72C138.616 104.517 139.55 101.624 139.55 98.04C139.55 96.7333 139.494 95.464 139.382 94.232C136.619 99.0107 133.147 101.4 128.966 101.4C125.979 101.4 123.664 100.299 122.022 98.096C120.379 95.8187 119.558 93.0933 119.558 89.92L119.894 81.464C119.894 80.3067 119.744 78.9253 119.446 77.32C119.147 75.6773 118.998 74.6507 118.998 74.24C118.998 73.8293 119.222 73.4 119.67 72.952C120.155 72.504 120.734 72.28 121.406 72.28C123.123 72.28 123.982 73.8107 123.982 76.872L123.534 89.192C123.534 91.768 124.075 93.84 125.158 95.408C126.278 96.976 127.79 97.76 129.694 97.76C131.598 97.76 133.446 96.696 135.238 94.568C136.992 92.4027 138.243 89.976 138.99 87.288Z" fill="white"/>
<path d="M101.01 88.016L101.178 98.544C101.178 100.448 100.469 101.4 99.0502 101.4C97.3329 101.4 96.4742 100.131 96.4742 97.592C96.4742 95.016 96.8475 91.2827 97.5942 86.392C97.5942 84.824 97.4262 82.64 97.0902 79.84C96.7915 77.0027 96.6422 75.2853 96.6422 74.688C96.6422 74.0907 96.8475 73.5493 97.2582 73.064C97.6689 72.5413 98.1915 72.28 98.8262 72.28C99.4609 72.28 99.9835 72.5413 100.394 73.064C100.805 73.5493 101.01 74.0533 101.01 74.576C101.01 75.0987 100.992 75.9387 100.954 77.096C100.954 78.2533 100.954 79.056 100.954 79.504C101.664 77.6373 102.821 75.9573 104.426 74.464C106.069 73.008 107.693 72.28 109.298 72.28C110.941 72.28 112.229 72.616 113.162 73.288C114.133 73.9227 114.618 74.6507 114.618 75.472C114.618 76.2933 114.413 76.928 114.002 77.376C113.592 77.824 113.05 78.048 112.378 78.048C111.744 78.048 111.034 77.712 110.25 77.04C109.541 76.3307 108.944 75.976 108.458 75.976C107.226 75.976 105.789 77.32 104.146 80.008C102.504 82.6587 101.458 85.328 101.01 88.016Z" fill="white"/>
<path d="M68.4191 76.872L67.9711 89.192C67.9711 91.768 68.5124 93.84 69.5951 95.408C70.7151 96.976 72.2271 97.76 74.1311 97.76C76.0351 97.76 77.8831 96.696 79.6751 94.568C81.4297 92.4027 82.6804 89.976 83.4271 87.288L83.2591 75.136C83.2591 73.232 83.9684 72.28 85.3871 72.28C87.1044 72.28 87.9631 73.568 87.9631 76.144C87.9631 78.6827 87.5897 82.3973 86.8431 87.288C86.8431 90.0133 87.0297 92.2907 87.4031 94.12C87.8137 95.912 88.3177 96.92 88.9151 97.144C89.1391 97.256 89.4004 97.3307 89.6991 97.368C90.0351 97.4053 90.2591 97.4613 90.3711 97.536C90.5204 97.6107 90.5951 97.76 90.5951 97.984C90.5951 98.992 90.2777 99.8133 89.6431 100.448C89.0457 101.083 88.2804 101.4 87.3471 101.4C84.9951 101.4 83.8191 99.0107 83.8191 94.232C81.0564 99.0107 77.5844 101.4 73.4031 101.4C70.4164 101.4 68.1017 100.299 66.4591 98.096C64.8164 95.8187 63.9951 93.0933 63.9951 89.92L64.3311 81.464C64.3311 80.3067 64.1817 78.9253 63.8831 77.32C63.5844 75.6773 63.4351 74.6507 63.4351 74.24C63.4351 73.8293 63.6591 73.4 64.1071 72.952C64.5924 72.504 65.1711 72.28 65.8431 72.28C67.5604 72.28 68.4191 73.8107 68.4191 76.872Z" fill="white"/>
<path d="M41.256 92.664C40.696 92.8507 40.2293 92.8507 39.856 92.664C39.4827 92.4773 39.296 92.2347 39.296 91.936C39.296 91.6373 39.3893 91.3013 39.576 90.928C39.7627 90.5173 39.9307 90.1253 40.08 89.752C40.4533 88.856 40.304 88.1653 39.632 87.68C38.848 87.1573 38.064 86.896 37.28 86.896C36.496 86.896 35.7493 87.232 35.04 87.904C34.368 88.5387 34.032 89.4347 34.032 90.592C34.032 92.272 34.8533 93.896 36.496 95.464C38.1387 96.9947 40.3787 97.76 43.216 97.76C46.0533 97.76 48.4053 96.92 50.272 95.24C52.176 93.56 53.128 91.5067 53.128 89.08C53.128 85.7947 50.664 82.9013 45.736 80.4C45.4747 80.2507 44.896 79.9707 44 79.56C43.104 79.112 42.488 78.7947 42.152 78.608C41.816 78.4213 41.256 78.1227 40.472 77.712C39.7253 77.3013 39.128 76.9467 38.68 76.648C38.2693 76.3493 37.7653 75.9947 37.168 75.584C36.272 74.9867 35.32 74.128 34.312 73.008C32.8933 71.2907 32.184 69.2747 32.184 66.96C32.184 64.608 33.3227 62.536 35.6 60.744C37.8773 58.9147 38.4387 63.5 41.5 63.5C44.5987 63.5 48.7382 59.5246 50.9036 60.6819C53.0689 61.8392 51.5 59.544 51.5 61C51.5 61.896 50.6707 59.5413 49.924 59.84C49.6627 59.9147 49.9981 60.6819 49.5874 60.6819C49.1767 60.6819 49.9981 60.1067 49.5874 59.8453C49.2141 59.584 50.1101 61.1299 49.5874 60.6819C49.1021 60.2339 48.4107 61.7613 48 61.5C46.88 60.7533 46.0533 61.92 44.112 61.92C42.1707 61.92 40.4347 62.424 38.904 63.432C37.4107 64.44 36.664 65.6907 36.664 67.184C36.664 68.64 37.3733 70.0027 38.792 71.272C40.0613 72.392 42.0587 73.6987 44.784 75.192C47.5093 76.648 49.32 77.656 50.216 78.216C52.4187 79.5227 54.192 81.128 55.536 83.032C56.9173 84.8987 57.608 86.9147 57.608 89.08C57.608 92.5147 56.264 95.4827 53.576 97.984C50.9253 100.448 47.528 101.68 43.384 101.68C39.24 101.68 35.9733 100.597 33.584 98.432C31.1947 96.2667 30 93.8773 30 91.264C30 88.6507 30.6907 86.6347 32.072 85.216C33.4533 83.76 35.1893 83.032 37.28 83.032C39.3707 83.032 40.976 83.5547 42.096 84.6C43.216 85.6453 43.776 86.84 43.776 88.184C43.776 89.528 43.4213 90.6293 42.712 91.488C42.3013 92.048 41.816 92.44 41.256 92.664Z" fill="white"/>
<path d="M50.488 11.7897C61.535 4.33687 70.7321 0.901179 74.1149 4.33686C79.4006 9.62254 68.6178 28.4395 50.6465 46.6222C32.6752 64.8049 13.6468 75.3763 8.36115 70.0906C4.88847 66.6179 8.25544 57.1143 16.2421 45.8188" stroke="white" stroke-width="5.28567" stroke-linecap="round" stroke-linejoin="round"/>
<path d="M33.0981 62.2361C35.7616 63.0984 38.5441 63.5372 41.3437 63.5364C45.5479 63.5392 49.692 62.539 53.432 60.6188C57.172 58.6986 60.4 55.9139 62.8478 52.4959C65.2957 49.0779 66.8928 45.1253 67.5065 40.9662C68.1203 36.8071 67.7329 32.5616 66.3767 28.5822M20.2011 52.965C16.384 47.8757 14.5309 41.5802 14.9819 35.2345C15.4329 28.8888 18.1577 22.9188 22.6561 18.4204C27.1545 13.922 33.1246 11.1971 39.4703 10.7462C45.816 10.2952 52.1114 12.1483 57.2008 15.9653" stroke="white" stroke-width="5.28567" stroke-linecap="round" stroke-linejoin="round"/>
</g>
<defs>
<filter id="filter0_d_1_20" x="0.357172" y="0.357174" width="186.961" height="121.363" filterUnits="userSpaceOnUse" color-interpolation-filters="sRGB">
<feFlood flood-opacity="0" result="BackgroundImageFix"/>
<feColorMatrix in="SourceAlpha" type="matrix" values="0 0 0 0 0 0 0 0 0 0 0 0 0 0 0 0 0 0 127 0" result="hardAlpha"/>
<feOffset dy="4"/>
<feGaussianBlur stdDeviation="2"/>
<feComposite in2="hardAlpha" operator="out"/>
<feColorMatrix type="matrix" values="0 0 0 0 0 0 0 0 0 0 0 0 0 0 0 0 0 0 0.25 0"/>
<feBlend mode="normal" in2="BackgroundImageFix" result="effect1_dropShadow_1_20"/>
<feBlend mode="normal" in="SourceGraphic" in2="effect1_dropShadow_1_20" result="shape"/>
</filter>
</defs>
</svg>
