<svg width="142" height="35" viewBox="0 0 142 35" fill="none" xmlns="http://www.w3.org/2000/svg">
<path d="M16.8046 10.9657C17.1156 10.9657 17.4138 11.0941 17.6336 11.3226C17.8535 11.5511 17.977 11.861 17.977 12.1841V21.9314C17.977 22.2545 17.8535 22.5644 17.6336 22.7929C17.4138 23.0214 17.1156 23.1498 16.8046 23.1498C16.4937 23.1498 16.1955 23.0214 15.9756 22.7929C15.7557 22.5644 15.6322 22.2545 15.6322 21.9314V12.1841C15.6322 11.861 15.7557 11.5511 15.9756 11.3226C16.1955 11.0941 16.4937 10.9657 16.8046 10.9657ZM18.3678 26.805C18.3678 27.2359 18.2031 27.6491 17.91 27.9538C17.6168 28.2584 17.2192 28.4296 16.8046 28.4296C16.39 28.4296 15.9924 28.2584 15.6993 27.9538C15.4061 27.6491 15.2414 27.2359 15.2414 26.805C15.2414 26.3742 15.4061 25.961 15.6993 25.6563C15.9924 25.3516 16.39 25.1805 16.8046 25.1805C17.2192 25.1805 17.6168 25.3516 17.91 25.6563C18.2031 25.961 18.3678 26.3742 18.3678 26.805Z" fill="#FF0000"/>
<path fill-rule="evenodd" clip-rule="evenodd" d="M16.8937 0H16.7155C13.106 0 10.2782 9.68305e-08 8.0709 0.308664C5.81361 0.623826 4.03154 1.28339 2.63246 2.73574C1.23338 4.18971 0.600276 6.04169 0.297012 8.38916C9.31751e-08 10.6814 0 13.6202 0 17.3713V17.5565C0 21.3076 9.31751e-08 24.2464 0.297012 26.5402C0.600276 28.8861 1.23494 30.738 2.63246 32.192C4.03154 33.646 5.81361 34.3039 8.07246 34.6191C10.2782 34.9278 13.106 34.9278 16.7155 34.9278H16.8937C20.5032 34.9278 23.331 34.9278 25.5383 34.6191C27.7956 34.3039 29.5777 33.6444 30.9767 32.192C32.3758 30.738 33.0089 28.8861 33.3122 26.5386C33.6092 24.2464 33.6092 21.3076 33.6092 17.5565V17.3713C33.6092 13.6202 33.6092 10.6814 33.3122 8.38753C33.0089 6.04169 32.3743 4.18971 30.9767 2.73574C29.5777 1.28177 27.7956 0.623826 25.5367 0.308664C23.331 9.68305e-08 20.5032 0 16.8937 0ZM4.29103 4.45938C5.18207 3.53339 6.38575 3.00216 8.3851 2.72274C10.4173 2.44007 13.1764 6.09205 16.8937 6.09205C20.611 6.09205 23.1919 2.44007 25.2241 2.72274C27.2234 3.00216 28.4287 3.53501 29.3197 4.45938C30.2092 5.38537 30.7204 6.63627 30.9892 8.71407C31.2612 10.826 31.2644 13.6007 31.2644 17.4639C31.2644 21.327 31.2612 24.1018 30.9892 26.2137C30.7204 28.2915 30.2076 29.544 29.3182 30.47C28.4271 31.3944 27.2234 31.9256 25.2241 32.205C23.1919 32.4877 20.611 34.9278 16.8937 34.9278C13.1764 34.9278 10.4173 32.4877 8.3851 32.205C6.38575 31.9256 5.18051 31.3927 4.28947 30.4684C3.4 29.5424 2.88883 28.2915 2.61995 26.2137C2.34795 24.1018 2.34483 21.327 2.34483 17.4639C2.34483 13.6007 2.34795 10.826 2.61995 8.71407C2.88883 6.63627 3.40156 5.38537 4.29103 4.45938Z" fill="black"/>
<path d="M49.4804 14.8444H50.8051C51.9479 14.8444 52.8483 14.6366 53.5063 14.221C54.3028 13.7535 54.7011 13.0435 54.7011 12.0912C54.7011 10.9657 54.3634 10.2298 53.6881 9.88344C53.2206 9.65833 52.2682 9.54578 50.831 9.54578H49.4804V14.8444ZM59.1425 26.1169H56.1556L53.3505 19.6235C52.9695 18.7404 52.6232 18.1863 52.3115 17.9612C51.9306 17.6668 51.3245 17.5196 50.4934 17.5196H49.4804V26.1169H46.7012V6.89649H51.792C55.6015 6.89649 57.5062 8.62805 57.5062 12.0912C57.5062 13.234 57.1512 14.1864 56.4413 14.9483C55.7314 15.7102 54.805 16.2036 53.6621 16.4288C54.6318 16.6192 55.3504 17.2599 55.8179 18.3508L59.1425 26.1169ZM72.1408 26.2208H62.2709V6.84454H71.8551V9.49384H65.102V14.8963H71.4915V17.5456H65.102V23.5455H72.1408V26.2208ZM79.3075 15.7015H79.9568C81.5152 15.7015 82.6148 15.511 83.2555 15.1301C84.0693 14.6626 84.4762 13.8054 84.4762 12.5587C84.4762 10.5155 83.5152 9.49384 81.5932 9.49384H79.3075V15.7015ZM76.4764 6.84454H81.3594C83.2641 6.84454 84.7186 7.32072 85.7229 8.27308C86.7965 9.24276 87.3333 10.6713 87.3333 12.5587C87.3333 14.3595 86.7446 15.7967 85.5671 16.8703C84.4416 17.8573 82.9784 18.3508 81.1776 18.3508H79.3075V26.2208H76.4764V6.84454ZM100.967 18.5846L97.8245 10.5847L94.6558 18.5846H100.967ZM106.993 26.2208H103.98L102.006 21.2598H93.5909L91.5909 26.2208H88.604L96.4999 6.84454H99.331L106.993 26.2208ZM119.592 26.1169H109.826V6.89649H112.631V23.4416H119.592V26.1169ZM125.108 26.1169H122.251V6.89649H125.108V26.1169ZM138.319 9.83149C137.453 9.3986 136.293 9.18215 134.839 9.18215C132.588 9.18215 131.462 10.0133 131.462 11.6756C131.462 12.4721 132.163 13.3119 133.566 14.195C134.726 14.9396 135.635 15.5283 136.293 15.9612C136.951 16.3941 137.349 16.6798 137.488 16.8184C138.89 18.0478 139.592 19.4676 139.592 21.078C139.592 22.8788 138.899 24.2901 137.514 25.3117C136.336 26.1775 134.925 26.6104 133.28 26.6104C131.635 26.6104 130.129 26.3073 128.761 25.7013L129.098 22.8182C130.397 23.5455 131.826 23.9091 133.384 23.9091C135.687 23.9091 136.839 22.8961 136.839 20.8702C136.839 20.0737 136.137 19.2079 134.735 18.2729C133.471 17.4244 132.51 16.7751 131.852 16.3249C131.211 15.8747 130.865 15.6322 130.813 15.5976C129.427 14.4028 128.735 13.0955 128.735 11.6756C128.735 10.0653 129.358 8.77524 130.605 7.80556C131.73 6.93978 133.15 6.50689 134.865 6.50689C136.284 6.50689 137.592 6.73199 138.787 7.1822L138.319 9.83149Z" fill="black"/>
</svg>
