<svg width="556" height="172" viewBox="0 0 556 172" fill="none" xmlns="http://www.w3.org/2000/svg">
<g style="mix-blend-mode:luminosity">
<path d="M555.881 152.212C555.872 162.838 547.251 171.446 536.625 171.437L0.00236293 171.015L0.121663 19.2406C0.130016 8.61429 8.75113 0.00672338 19.3774 0.015076L556 0.43688L555.881 152.212Z" fill="#4E4E4E"/>
</g>
<path d="M0 19.4527C0 8.82641 8.61434 0.212051 19.2407 0.212051H551.566V147.724C551.566 158.35 542.952 166.965 532.325 166.965H0V19.4527Z" fill="#80B3FF"/>
<path d="M76.9609 113.657C73.0319 113.657 70.0606 112.552 68.0469 110.342C66.0333 108.083 65.0265 104.866 65.0265 100.691V97.7445H72.6881V101.281C72.6881 104.62 74.0878 106.29 76.8872 106.29C78.2624 106.29 79.2938 105.897 79.9814 105.111C80.7181 104.276 81.0864 102.95 81.0864 101.133C81.0864 98.9723 80.5953 97.0814 79.613 95.4607C78.6308 93.7909 76.8136 91.8018 74.1615 89.4935C70.8218 86.5467 68.4889 83.8946 67.1629 81.5372C65.8368 79.1307 65.1738 76.4295 65.1738 73.4336C65.1738 69.3572 66.2052 66.214 68.2679 64.0039C70.3307 61.7447 73.3266 60.6151 77.2556 60.6151C81.1355 60.6151 84.0577 61.7447 86.0222 64.0039C88.0359 66.214 89.0427 69.4063 89.0427 73.5809V75.7173H81.3811V73.0652C81.3811 71.2972 81.0373 70.0202 80.3497 69.2344C79.6621 68.3995 78.6553 67.9821 77.3293 67.9821C74.6281 67.9821 73.2774 69.6273 73.2774 72.9179C73.2774 74.7842 73.7686 76.5277 74.7508 78.1484C75.7822 79.7691 77.6239 81.7337 80.276 84.042C83.6648 86.9887 85.9977 89.6654 87.2746 92.0719C88.5516 94.4784 89.19 97.3024 89.19 100.544C89.19 104.768 88.1341 108.009 86.0222 110.268C83.9595 112.527 80.9391 113.657 76.9609 113.657ZM93.8364 61.3518H101.94V112.92H93.8364V61.3518ZM118.544 113.657C114.615 113.657 111.643 112.552 109.63 110.342C107.616 108.083 106.609 104.866 106.609 100.691V97.7445H114.271V101.281C114.271 104.62 115.671 106.29 118.47 106.29C119.845 106.29 120.877 105.897 121.564 105.111C122.301 104.276 122.669 102.95 122.669 101.133C122.669 98.9723 122.178 97.0814 121.196 95.4607C120.214 93.7909 118.396 91.8018 115.744 89.4935C112.405 86.5467 110.072 83.8946 108.746 81.5372C107.42 79.1307 106.757 76.4295 106.757 73.4336C106.757 69.3572 107.788 66.214 109.851 64.0039C111.914 61.7447 114.909 60.6151 118.838 60.6151C122.718 60.6151 125.641 61.7447 127.605 64.0039C129.619 66.214 130.626 69.4063 130.626 73.5809V75.7173H122.964V73.0652C122.964 71.2972 122.62 70.0202 121.933 69.2344C121.245 68.3995 120.238 67.9821 118.912 67.9821C116.211 67.9821 114.86 69.6273 114.86 72.9179C114.86 74.7842 115.351 76.5277 116.334 78.1484C117.365 79.7691 119.207 81.7337 121.859 84.042C125.248 86.9887 127.581 89.6654 128.857 92.0719C130.134 94.4784 130.773 97.3024 130.773 100.544C130.773 104.768 129.717 108.009 127.605 110.268C125.542 112.527 122.522 113.657 118.544 113.657ZM141.755 68.7187H133.283V61.3518H158.33V68.7187H149.858V112.92H141.755V68.7187ZM162.254 61.3518H184.355V68.7187H170.357V82.3476H181.482V89.7145H170.357V105.553H184.355V112.92H162.254V61.3518ZM189.017 61.3518H200.583L205.739 98.2601H205.887L211.044 61.3518H222.61V112.92H214.948V73.8756H214.801L208.907 112.92H202.13L196.236 73.8756H196.089V112.92H189.017V61.3518ZM246.791 68.7187H238.319V61.3518H263.367V68.7187H254.895V112.92H246.791V68.7187ZM270.171 61.3518H281.148L289.546 112.92H281.442L279.969 102.68V102.828H270.76L269.287 112.92H261.772L270.171 61.3518ZM279.011 95.8291L275.401 70.3395H275.254L271.718 95.8291H279.011ZM296.432 68.7187H287.96V61.3518H313.007V68.7187H304.535V112.92H296.432V68.7187ZM319.811 61.3518H330.788L339.186 112.92H331.083L329.609 102.68V102.828H320.401L318.927 112.92H311.413L319.811 61.3518ZM328.652 95.8291L325.042 70.3395H324.894L321.358 95.8291H328.652ZM365.451 113.657C361.522 113.657 358.551 112.552 356.537 110.342C354.523 108.083 353.517 104.866 353.517 100.691V97.7445H361.178V101.281C361.178 104.62 362.578 106.29 365.377 106.29C366.753 106.29 367.784 105.897 368.472 105.111C369.208 104.276 369.577 102.95 369.577 101.133C369.577 98.9723 369.085 97.0814 368.103 95.4607C367.121 93.7909 365.304 91.8018 362.652 89.4935C359.312 86.5467 356.979 83.8946 355.653 81.5372C354.327 79.1307 353.664 76.4295 353.664 73.4336C353.664 69.3572 354.695 66.214 356.758 64.0039C358.821 61.7447 361.817 60.6151 365.746 60.6151C369.626 60.6151 372.548 61.7447 374.512 64.0039C376.526 66.214 377.533 69.4063 377.533 73.5809V75.7173H369.871V73.0652C369.871 71.2972 369.527 70.0202 368.84 69.2344C368.152 68.3995 367.145 67.9821 365.819 67.9821C363.118 67.9821 361.768 69.6273 361.768 72.9179C361.768 74.7842 362.259 76.5277 363.241 78.1484C364.272 79.7691 366.114 81.7337 368.766 84.042C372.155 86.9887 374.488 89.6654 375.765 92.0719C377.042 94.4784 377.68 97.3024 377.68 100.544C377.68 104.768 376.624 108.009 374.512 110.268C372.45 112.527 369.429 113.657 365.451 113.657ZM394.114 113.657C390.185 113.657 387.189 112.552 385.126 110.342C383.063 108.083 382.032 104.866 382.032 100.691V61.3518H390.135V101.281C390.135 103.049 390.479 104.326 391.167 105.111C391.904 105.897 392.935 106.29 394.261 106.29C395.587 106.29 396.594 105.897 397.281 105.111C398.018 104.326 398.386 103.049 398.386 101.281V61.3518H406.195V100.691C406.195 104.866 405.164 108.083 403.101 110.342C401.039 112.552 398.043 113.657 394.114 113.657ZM411.967 61.3518H423.975C428.15 61.3518 431.195 62.3341 433.11 64.2986C435.025 66.214 435.983 69.1853 435.983 73.2126V76.3804C435.983 81.7337 434.215 85.1224 430.679 86.5467V86.6941C432.643 87.2834 434.019 88.4867 434.804 90.3039C435.639 92.121 436.057 94.5521 436.057 97.5971V106.658C436.057 108.132 436.106 109.335 436.204 110.268C436.302 111.152 436.548 112.036 436.941 112.92H428.69C428.395 112.085 428.199 111.3 428.1 110.563C428.002 109.826 427.953 108.5 427.953 106.585V97.1551C427.953 94.7977 427.56 93.1524 426.774 92.2193C426.038 91.2861 424.736 90.8195 422.87 90.8195H420.071V112.92H411.967V61.3518ZM423.017 83.4526C424.638 83.4526 425.841 83.0351 426.627 82.2002C427.462 81.3653 427.879 79.9656 427.879 78.0011V74.0229C427.879 72.1566 427.536 70.806 426.848 69.9711C426.21 69.1362 425.178 68.7187 423.754 68.7187H420.071V83.4526H423.017ZM447.969 90.9669L438.171 61.3518H446.79L452.315 80.2848H452.463L457.988 61.3518H465.87L456.072 90.9669V112.92H447.969V90.9669ZM472.402 61.3518H483.378L491.777 112.92H483.673L482.2 102.68V102.828H472.991L471.518 112.92H464.003L472.402 61.3518ZM481.242 95.8291L477.632 70.3395H477.485L473.949 95.8291H481.242Z" fill="white"/>
<g filter="url(#filter0_i_2_132)">
<path d="M27.0438 34.6305H22.1268V14.9624H17.2097V10.0454H27.0438M39.3365 0.211309H4.91706C3.61297 0.211309 2.3623 0.729352 1.44017 1.65147C0.518045 2.5736 0 3.82427 0 5.12834V39.5476C0 40.8517 2.8405e-06 42.2967 1.23528e-05 44.4646C1.23528e-05 44.4646 3.61297 44.4646 4.91706 44.4646H39.3365C40.6406 44.4646 41.8912 43.9466 42.8134 43.0244C43.7355 42.1023 44.2535 40.8517 44.2535 39.5476V5.12834C44.2535 3.82427 44.2535 1.27205 44.2535 0.211075C41.9088 0.211075 40.6406 0.211309 39.3365 0.211309Z" fill="#FF5C00"/>
</g>
<g opacity="0.3">
<path d="M222.365 50.9492C216.254 60.7772 213.025 72.123 213.044 83.6957C213.044 118.014 240.863 145.833 275.182 145.833C281.504 145.839 287.79 144.879 293.823 142.988M327.085 117.871C333.781 107.733 337.34 95.8458 337.319 83.6957C337.319 49.3771 309.5 21.558 275.182 21.558C268.859 21.5528 262.573 22.5125 256.54 24.4039" stroke="white" stroke-opacity="0.8" stroke-width="9.32066" stroke-linecap="round" stroke-linejoin="round"/>
<path d="M231.685 52.6269C238.548 52.6269 244.112 47.0629 244.112 40.1993C244.112 33.3358 238.548 27.7718 231.685 27.7718C224.821 27.7718 219.257 33.3358 219.257 40.1993C219.257 47.0629 224.821 52.6269 231.685 52.6269Z" stroke="white" stroke-opacity="0.8" stroke-width="9.32066" stroke-linecap="round" stroke-linejoin="round"/>
<path d="M318.678 139.62C325.542 139.62 331.106 134.056 331.106 127.192C331.106 120.329 325.542 114.765 318.678 114.765C311.814 114.765 306.25 120.329 306.25 127.192C306.25 134.056 311.814 139.62 318.678 139.62Z" stroke="white" stroke-opacity="0.8" stroke-width="9.32066" stroke-linecap="round" stroke-linejoin="round"/>
<path d="M250.326 114.765C257.19 114.765 262.754 109.201 262.754 102.337C262.754 95.4735 257.19 89.9095 250.326 89.9095C243.463 89.9095 237.899 95.4735 237.899 102.337C237.899 109.201 243.463 114.765 250.326 114.765Z" stroke="white" stroke-opacity="0.8" stroke-width="9.32066" stroke-linecap="round" stroke-linejoin="round"/>
<path d="M275.182 114.765C281.593 114.763 287.847 112.779 293.085 109.083C298.324 105.387 302.291 100.161 304.443 94.1214C306.594 88.0819 306.824 81.5248 305.102 75.3492C303.38 69.1737 299.789 63.6822 294.823 59.6279C289.856 55.5736 283.757 53.155 277.362 52.7039C270.966 52.2528 264.588 53.7912 259.101 57.1081C253.615 60.425 249.289 65.3581 246.717 71.2307C244.144 77.1033 243.452 83.6278 244.734 89.9095M275.238 83.6957H275.182" stroke="white" stroke-opacity="0.8" stroke-width="9.32066" stroke-linecap="round" stroke-linejoin="round"/>
</g>
<defs>
<filter id="filter0_i_2_132" x="0" y="0.211075" width="44.2534" height="52.4936" filterUnits="userSpaceOnUse" color-interpolation-filters="sRGB">
<feFlood flood-opacity="0" result="BackgroundImageFix"/>
<feBlend mode="normal" in="SourceGraphic" in2="BackgroundImageFix" result="shape"/>
<feColorMatrix in="SourceAlpha" type="matrix" values="0 0 0 0 0 0 0 0 0 0 0 0 0 0 0 0 0 0 127 0" result="hardAlpha"/>
<feOffset dy="8.24007"/>
<feGaussianBlur stdDeviation="4.12004"/>
<feComposite in2="hardAlpha" operator="arithmetic" k2="-1" k3="1"/>
<feColorMatrix type="matrix" values="0 0 0 0 0 0 0 0 0 0 0 0 0 0 0 0 0 0 0.25 0"/>
<feBlend mode="normal" in2="shape" result="effect1_innerShadow_2_132"/>
</filter>
</defs>
</svg>
