<svg width="556" height="172" viewBox="0 0 556 172" fill="none" xmlns="http://www.w3.org/2000/svg">
<g style="mix-blend-mode:luminosity">
<path d="M555.878 152.633C555.87 163.259 547.249 171.867 536.623 171.858L-7.84804e-05 171.436L0.119222 19.6615C0.127574 9.0352 8.74866 0.427622 19.375 0.435974L555.998 0.857778L555.878 152.633Z" fill="#4E4E4E"/>
</g>
<path d="M0 19.663C0 9.03672 8.61434 0.422363 19.2407 0.422363H551.566V147.934C551.566 158.56 542.952 167.175 532.325 167.175H0V19.663Z" fill="#80B3FF"/>
<path opacity="0.3" d="M307.814 87.1708C307.845 76.8828 303.99 66.9625 297.02 59.3948C290.051 51.8272 280.48 47.1705 270.225 46.3565C259.969 45.5425 249.784 48.6313 241.708 55.0048C233.632 61.3783 228.26 70.5664 226.668 80.7306C229.765 80.4816 232.853 80.4695 235.932 80.6941C236.812 76.448 238.553 72.4272 241.047 68.88C243.541 65.3329 246.736 62.3347 250.435 60.0707C254.133 57.8066 258.256 56.3247 262.55 55.7165C266.843 55.1082 271.216 55.3866 275.398 56.5343C279.579 57.682 283.481 59.6748 286.863 62.3895C290.244 65.1042 293.033 68.4833 295.058 72.3181C297.082 76.1528 298.299 80.3619 298.633 84.6854C298.968 89.0088 298.412 93.3549 297.001 97.4552C300.553 96.9451 303.96 96.0706 307.067 94.9957C307.565 92.4573 307.814 89.855 307.814 87.1708ZM221.822 35.84L221.184 35.3117C220.249 34.6621 219.104 34.3864 217.976 34.5388C216.848 34.6913 215.817 35.2609 215.088 36.1353C214.359 37.0097 213.983 38.1256 214.036 39.2631C214.089 40.4005 214.566 41.4769 215.372 42.2803L223.188 50.096L223.826 50.6244C224.761 51.2739 225.906 51.5497 227.034 51.3972C228.162 51.2448 229.193 50.6752 229.922 49.8007C230.651 48.9263 231.027 47.8104 230.974 46.673C230.921 45.5356 230.445 44.4591 229.638 43.6558L221.822 35.84ZM318.945 41.6426C319.584 40.707 319.852 39.5666 319.695 38.4444C319.539 37.3221 318.969 36.2985 318.099 35.5734C317.228 34.8483 316.118 34.4738 314.986 34.5231C313.854 34.5724 312.781 35.042 311.976 35.84L304.152 43.6558L303.623 44.2934C302.984 45.2291 302.717 46.3694 302.873 47.4917C303.03 48.614 303.599 49.6376 304.47 50.3627C305.34 51.0878 306.45 51.4622 307.582 51.4129C308.714 51.3636 309.787 50.8941 310.592 50.096L318.417 42.2803L318.945 41.6426ZM271.404 18.1133C271.201 16.9934 270.586 15.9899 269.681 15.3006C268.775 14.6112 267.644 14.2859 266.51 14.3888C265.377 14.4916 264.323 15.0151 263.556 15.8562C262.789 16.6973 262.365 17.795 262.367 18.9332V29.9827L262.44 30.8026C262.643 31.9225 263.258 32.926 264.163 33.6153C265.069 34.3047 266.2 34.63 267.333 34.5271C268.467 34.4243 269.521 33.9008 270.288 33.0597C271.055 32.2186 271.479 31.1209 271.477 29.9827V18.924L271.404 18.1133ZM209.643 104.688C219.262 99.4411 228.189 98.0018 236.943 99.0949C245.816 100.215 254.797 103.968 264.362 109.552C275.321 115.938 287.901 117.104 299.287 115.528C310.656 113.952 321.241 109.598 328.528 104.397C329.511 103.693 330.175 102.629 330.373 101.436C330.571 100.244 330.288 99.0215 329.585 98.0382C328.882 97.0549 327.817 96.3912 326.624 96.193C325.432 95.9949 324.21 96.2785 323.226 96.9816C317.233 101.263 308.05 105.116 298.039 106.501C288.046 107.885 277.671 106.774 268.953 101.682C258.86 95.7973 248.667 91.3885 238.073 90.0585C227.369 88.7194 216.529 90.5504 205.279 96.6901C204.754 96.9766 204.291 97.3637 203.915 97.8294C203.54 98.295 203.259 98.8301 203.091 99.404C202.922 99.9779 202.868 100.579 202.932 101.174C202.995 101.769 203.176 102.346 203.462 102.871C204.041 103.931 205.017 104.719 206.176 105.059C206.75 105.228 207.351 105.282 207.946 105.219C208.541 105.155 209.118 104.975 209.643 104.688ZM209.643 122.907C219.262 117.66 228.189 116.22 236.943 117.313C245.816 118.434 254.797 122.187 264.362 127.771C275.321 134.157 287.901 135.323 299.287 133.747C310.656 132.171 321.241 127.816 328.528 122.615C329.511 121.912 330.175 120.847 330.373 119.655C330.571 118.462 330.288 117.24 329.585 116.257C328.882 115.274 327.817 114.61 326.624 114.412C325.432 114.213 324.21 114.497 323.226 115.2C317.233 119.482 308.05 123.335 298.039 124.719C288.046 126.104 277.671 124.993 268.953 119.901C258.86 114.016 248.667 109.607 238.073 108.277C227.369 106.938 216.529 108.769 205.279 114.909C204.219 115.487 203.431 116.463 203.091 117.623C202.75 118.782 202.883 120.029 203.462 121.089C204.041 122.15 205.017 122.937 206.176 123.278C207.335 123.619 208.582 123.485 209.643 122.907ZM236.943 135.532C228.189 134.439 219.262 135.878 209.643 141.125C209.118 141.412 208.541 141.593 207.946 141.657C207.351 141.722 206.749 141.668 206.175 141.5C205.015 141.16 204.037 140.373 203.458 139.312C203.17 138.787 202.99 138.211 202.925 137.616C202.861 137.021 202.915 136.419 203.083 135.844C203.423 134.684 204.21 133.707 205.27 133.127C216.529 126.988 227.369 125.157 238.082 126.496C248.667 127.826 258.86 132.235 268.962 138.119C277.671 143.202 288.046 144.323 298.039 142.947C308.041 141.553 317.233 137.709 323.226 133.419C324.21 132.716 325.432 132.432 326.624 132.63C327.817 132.828 328.882 133.492 329.585 134.475C330.288 135.459 330.571 136.681 330.373 137.873C330.175 139.066 329.511 140.131 328.528 140.834C321.241 146.026 310.647 150.389 299.287 151.965C287.901 153.541 275.321 152.375 264.362 145.99C254.797 140.406 245.816 136.653 236.943 135.541" fill="white" fill-opacity="0.8"/>
<path d="M68.9628 60.5045H80.8973C84.9245 60.5045 87.945 61.585 89.9586 63.7459C91.9722 65.9069 92.979 69.0747 92.979 73.2493V78.3325C92.979 82.507 91.9722 85.6748 89.9586 87.8358C87.945 89.9968 84.9245 91.0772 80.8973 91.0772H77.0664V112.073H68.9628V60.5045ZM80.8973 83.7103C82.2233 83.7103 83.2056 83.342 83.844 82.6053C84.5316 81.8686 84.8754 80.6162 84.8754 78.8481V72.7336C84.8754 70.9655 84.5316 69.7131 83.844 68.9764C83.2056 68.2398 82.2233 67.8714 80.8973 67.8714H77.0664V83.7103H80.8973ZM97.3802 60.5045H119.481V67.8714H105.484V81.5002H116.608V88.8672H105.484V104.706H119.481V112.073H97.3802V60.5045ZM124.143 60.5045H136.151C140.326 60.5045 143.371 61.4867 145.286 63.4513C147.201 65.3667 148.159 68.338 148.159 72.3652V75.533C148.159 80.8863 146.391 84.2751 142.855 85.6994V85.8467C144.819 86.4361 146.195 87.6393 146.98 89.4565C147.815 91.2737 148.233 93.7048 148.233 96.7498V105.811C148.233 107.284 148.282 108.488 148.38 109.421C148.478 110.305 148.724 111.189 149.117 112.073H140.866C140.571 111.238 140.375 110.452 140.276 109.716C140.178 108.979 140.129 107.653 140.129 105.737V96.3078C140.129 93.9503 139.736 92.3051 138.95 91.3719C138.214 90.4388 136.912 89.9722 135.046 89.9722H132.246V112.073H124.143V60.5045ZM135.193 82.6053C136.814 82.6053 138.017 82.1878 138.803 81.3529C139.638 80.518 140.055 79.1183 140.055 77.1537V73.1756C140.055 71.3093 139.712 69.9587 139.024 69.1238C138.386 68.2889 137.354 67.8714 135.93 67.8714H132.246V82.6053H135.193ZM165.642 112.81C161.713 112.81 158.717 111.705 156.655 109.495C154.592 107.235 153.561 104.018 153.561 99.8439V60.5045H161.664V100.433C161.664 102.201 162.008 103.478 162.696 104.264C163.432 105.05 164.464 105.443 165.79 105.443C167.116 105.443 168.122 105.05 168.81 104.264C169.547 103.478 169.915 102.201 169.915 100.433V60.5045H177.724V99.8439C177.724 104.018 176.693 107.235 174.63 109.495C172.567 111.705 169.571 112.81 165.642 112.81ZM183.496 60.5045H195.725C199.899 60.5045 202.944 61.4867 204.86 63.4513C206.775 65.3667 207.733 68.338 207.733 72.3652V74.428C207.733 77.0801 207.291 79.241 206.407 80.9109C205.572 82.5807 204.27 83.784 202.502 84.5207V84.668C206.53 86.0432 208.543 89.6284 208.543 95.4237V99.8439C208.543 103.822 207.487 106.867 205.375 108.979C203.313 111.042 200.268 112.073 196.24 112.073H183.496V60.5045ZM194.767 81.5002C196.388 81.5002 197.591 81.0828 198.377 80.2479C199.212 79.4129 199.629 78.0132 199.629 76.0487V73.1756C199.629 71.3093 199.285 69.9587 198.598 69.1238C197.959 68.2889 196.928 67.8714 195.504 67.8714H191.599V81.5002H194.767ZM196.24 104.706C197.665 104.706 198.721 104.338 199.408 103.601C200.096 102.815 200.44 101.489 200.44 99.6229V95.1291C200.44 92.7716 200.022 91.1509 199.187 90.2669C198.401 89.3337 197.075 88.8672 195.209 88.8672H191.599V104.706H196.24ZM219.542 60.5045H230.518L238.917 112.073H230.813L229.34 101.833V101.98H220.131L218.658 112.073H211.143L219.542 60.5045ZM228.382 94.9817L224.772 69.4921H224.625L221.089 94.9817H228.382ZM242.848 60.5045H250.952V81.5002H259.645V60.5045H267.749V112.073H259.645V88.8672H250.952V112.073H242.848V60.5045ZM280.046 60.5045H291.022L299.421 112.073H291.317L289.844 101.833V101.98H280.635L279.162 112.073H271.647L280.046 60.5045ZM288.886 94.9817L285.276 69.4921H285.129L281.593 94.9817H288.886ZM303.352 60.5045H313.518L321.401 91.3719H321.548V60.5045H328.768V112.073H320.443L310.719 74.428H310.572V112.073H303.352V60.5045ZM346.59 60.5045H354.693V112.073H346.59V60.5045ZM360.762 60.5045H368.866V82.2369L379.18 60.5045H387.283L377.633 79.4375L387.431 112.073H378.959L372.107 89.0882L368.866 95.6447V112.073H360.762V60.5045ZM391.266 60.5045H399.37V104.706H412.704V112.073H391.266V60.5045ZM416.59 60.5045H424.694V112.073H416.59V60.5045ZM430.763 60.5045H442.329L447.486 97.4128H447.633L452.79 60.5045H464.356V112.073H456.694V73.0283H456.547L450.653 112.073H443.876L437.982 73.0283H437.835V112.073H430.763V60.5045Z" fill="white"/>
</svg>
